<?xml version="1.0" encoding="utf-8"?>
<!-- Generator: Adobe Illustrator 25.0.1, SVG Export Plug-In . SVG Version: 6.00 Build 0)  -->
<svg version="1.1" id="Layer_1" xmlns="http://www.w3.org/2000/svg"
	 xmlns:xlink="http://www.w3.org/1999/xlink" x="0px" y="0px"
	 viewBox="0 0 512 512" style="enable-background:new 0 0 512 512;"
	 xml:space="preserve"
	fill="#00559D"
>
<path d="M198.72,337.41c0-13.89,6.5-35.16,15.07-58.21l34.28-91.01c6.2-16.55,7.09-21.86,2.95-24.53l-6.79-4.73
	c-0.59-1.18-0.29-2.96,0.89-4.14c4.16-1.53,14.17-4.04,24.61-5.11v-28.54H168.48V281.5c0,26.28-5.8,44.44-32.84,44.44
	c-24.73,0-32.07-19.32-32.07-44.83V121.14H0v163.84c0,79.6,59.12,110.52,134.47,110.52c48.11,0,86.51-9.97,109.93-36.08
	c-9.35,3.92-17.05,5.17-22.05,5.17C206.4,364.59,198.72,354.25,198.72,337.41z"/>
<path d="M287.06,249.95c-7.98,0-22.46,10.05-40.77,31.03c-18.62,21.27-27.78,45.5-27.78,59.1c0,11.52,5.32,15.37,10.34,15.37
	c4.43,0,15.66-5.61,28.37-19.8c18.32-20.69,40.18-58.21,40.18-75.05C297.41,252.6,292.39,249.95,287.06,249.95z"/>
<path d="M423.13,254.07v71.88c-6.19,2.32-14.69,2.32-22.03,2.32c-41.35,0-56.41-32.46-56.41-69.55c0-49.07,34-74.96,85.4-74.96
	c28.98,0,56.42,6.96,71.1,15.46v-72.65c-25.89-6.18-50.23-10.05-100.86-10.05c-47.06,0-90.68,13.38-120.7,40.11
	c-5.12,13.55-9.03,23.48-12.94,33.64l-38.41,101.05h0.59c20.69-31.32,40.48-51.41,62.64-51.41c17.43,0,25.41,11.52,25.41,26.59
	c0,20.39-14.18,46.09-38.12,69.44c-3.08,2.96-6.11,5.63-9.09,8.04c29.29,34.48,76.74,51.53,130.62,51.53
	c42.51,0,76.13-4.25,111.68-14.68V254.07H423.13z"/>
</svg>
