<svg xmlns="http://www.w3.org/2000/svg" viewBox="0 0 313.81 48"><defs><style>.a{fill:#00559d;}.b{fill:#fff;}.c{fill:#1d1d1b;}</style></defs><path class="a" d="M17.82,28.32c0,4.39,1.26,7.71,5.52,7.71C28,36,29,32.91,29,28.39V.8H46.4V28.06c0,15-9.24,19.94-23.26,19.94C10.17,48,0,42.68,0,29V.8H17.82Z"/><path class="a" d="M88.09,45.47A64.81,64.81,0,0,1,68.87,48c-15.42,0-27.78-8.11-27.78-24.66C41.09,7.78,54,0,68.87,0c8.71,0,12.9.66,17.36,1.73v12.5C83.7,12.76,79,11.57,74,11.57c-8.84,0-14.69,4.45-14.69,12.9,0,6.38,2.59,12,9.71,12A11.66,11.66,0,0,0,72.8,36V23.67H88.09Z"/><path class="b" d="M39.27,30.08h.1c3.56-5.39,7-8.85,10.78-8.85,3,0,4.37,2,4.37,4.58,0,3.5-2.44,7.93-6.55,11.94S40,42.68,38.26,42.68c-2.75,0-4.07-1.78-4.07-4.67,0-2.39,1.12-6,2.59-10l5.9-15.66c1.07-2.84,1.22-3.76.51-4.22L42,7.3a.65.65,0,0,1,.15-.71,20.13,20.13,0,0,1,6.1-1l.2.31c-1.06,2.84-1.83,4.78-2.59,6.76Zm3.1-1.78C39.17,32,37.6,36.12,37.6,38.46c0,2,.91,2.65,1.77,2.65s2.7-1,4.88-3.41c3.16-3.56,6.92-10,6.92-12.91A1.64,1.64,0,0,0,49.39,23C48,23,45.53,24.69,42.37,28.3Z"/><path class="c" d="M107.65,10c0,3.43,1,5.2,4.3,5.2,3.1,0,4.21-2.24,4.21-5.39V2.5a4.46,4.46,0,0,0,.54.06c.18,0,.35,0,.55-.06v7.75c0,3.86-2.26,5.81-5.69,5.81a5.83,5.83,0,0,1-4.22-1.37c-1.23-1.11-1.39-2.84-1.41-4.4V2.5c.28,0,.57.06.86.06s.55,0,.86-.06Z"/><path class="c" d="M121.45,6.51c.26,0,.51.06.78.06s.49,0,.78-.06V8.29a3.49,3.49,0,0,1,3.14-1.89c2.26,0,3.13,1.22,3.13,3.8v5.62c-.29,0-.52-.06-.78-.06s-.52,0-.78.06V10.64c0-1.81-.33-3.23-2.16-3.23-2,0-2.55,1.5-2.55,3.9v4.51c-.29,0-.52-.06-.78-.06s-.52,0-.78.06Z"/><path class="c" d="M134.44,4V6.51h2.07a1.58,1.58,0,0,0,0,.75h-2.07v4.88c0,1.19-.17,3.16,1.44,3.16a4.36,4.36,0,0,0,.88-.14v.47a4.86,4.86,0,0,1-1.64.35c-1.48,0-2.33-.68-2.24-3.06V7.26h-1.2a1.89,1.89,0,0,0,0-.75h1.2V4.59Z"/><path class="c" d="M146.2,14.83A5.93,5.93,0,0,1,142.85,16c-2.68,0-4.59-1.77-4.59-4.79,0-2.71,1.56-4.79,4.46-4.79,2.16,0,4.15,1.52,3.95,4.77-1.32,0-2.65-.06-3.95-.06H140c-.17,2.18,1,4.05,3.37,4.05a4.32,4.32,0,0,0,2.88-1.34Zm-1-4.44c0-1.69-.5-3.39-2.43-3.39s-2.63,1.75-2.75,3.39Z"/><path class="c" d="M149.57,6.51c.26,0,.51.06.78.06s.49,0,.78-.06v2l.1-.23a3.27,3.27,0,0,1,2.45-1.83,1.3,1.3,0,0,1,.6.1L154,8.13a3.49,3.49,0,0,0-.91-.31,1.74,1.74,0,0,0-1.25.49,3.16,3.16,0,0,0-.72,2.47v5c-.29,0-.53-.06-.78-.06s-.52,0-.78.06Z"/><path class="c" d="M156.72,6.51c.25,0,.51.06.78.06s.48,0,.78-.06V8.29a3.49,3.49,0,0,1,3.13-1.89c2.26,0,3.14,1.22,3.14,3.8v5.62c-.3,0-.53-.06-.78-.06s-.53,0-.78.06V10.64c0-1.81-.33-3.23-2.16-3.23-2.05,0-2.55,1.5-2.55,3.9v4.51c-.3,0-.53-.06-.78-.06s-.53,0-.78.06Z"/><path class="c" d="M175.36,14.83A6,6,0,0,1,172,16c-2.68,0-4.59-1.77-4.59-4.79,0-2.71,1.56-4.79,4.46-4.79,2.16,0,4.15,1.52,3.95,4.77-1.32,0-2.65-.06-3.95-.06h-2.75c-.17,2.18,1,4.05,3.37,4.05a4.32,4.32,0,0,0,2.88-1.34Zm-1.06-4.44c0-1.69-.5-3.39-2.43-3.39s-2.63,1.75-2.75,3.39Z"/><path class="c" d="M178.68,1.2c.26,0,.51.06.78.06s.49,0,.78-.06V8.29a3.49,3.49,0,0,1,3.14-1.89c2.26,0,3.13,1.34,3.13,3.8v5.62c-.29,0-.52-.06-.78-.06s-.52,0-.78.06V10.64c0-2.16-.5-3.23-2.16-3.23s-2.55,1.09-2.55,3.12v5.29c-.29,0-.52-.06-.78-.06s-.52,0-.78.06Z"/><path class="c" d="M190.1,6.51c.25,0,.5.06.77.06s.49,0,.78-.06V8.19a3.16,3.16,0,0,1,2.88-1.79,2.89,2.89,0,0,1,2.85,1.93,3.43,3.43,0,0,1,3.06-1.93c2.37,0,3.13,1.38,3.13,3.8v5.62c-.29,0-.52-.06-.78-.06s-.52,0-.78.06V10.64c0-1.73-.25-3.23-2.16-3.23s-2.24,1.75-2.24,3.16v5.25c-.29,0-.52-.06-.78-.06s-.52,0-.78.06v-5.7c0-1.83-.62-2.71-2.06-2.71-2,0-2.34,1.33-2.34,2.75v5.66c-.29,0-.52-.06-.78-.06s-.52,0-.77.06Z"/><path class="c" d="M214.24,14.83A5.93,5.93,0,0,1,210.89,16c-2.68,0-4.59-1.77-4.59-4.79,0-2.71,1.55-4.79,4.46-4.79,2.16,0,4.14,1.52,4,4.77-1.32,0-2.65-.06-4-.06H208c-.18,2.18,1,4.05,3.37,4.05a4.34,4.34,0,0,0,2.88-1.34Zm-1.05-4.44c0-1.69-.51-3.39-2.43-3.39s-2.63,1.75-2.75,3.39Z"/><path class="c" d="M217.57,6.51c.25,0,.51.06.78.06s.49,0,.78-.06V8.29a3.49,3.49,0,0,1,3.13-1.89c2.26,0,3.14,1.22,3.14,3.8v5.62c-.29,0-.53-.06-.78-.06s-.52,0-.78.06V10.64c0-1.81-.33-3.23-2.16-3.23-2,0-2.55,1.5-2.55,3.9v4.51c-.29,0-.53-.06-.78-.06s-.53,0-.78.06Z"/><path class="c" d="M229,13.93a2.87,2.87,0,0,0,2.24,1.45,1.87,1.87,0,0,0,1.91-1.78c0-2.63-4.6-.91-4.6-4.32a2.88,2.88,0,0,1,3.18-2.88,4.71,4.71,0,0,1,2.2.5,9.88,9.88,0,0,0-.47,1.39h-.17A2,2,0,0,0,231.61,7a1.61,1.61,0,0,0-1.77,1.62c0,2.49,4.6,1.17,4.6,4.28,0,2.09-1.87,3.08-3.59,3.08a5.1,5.1,0,0,1-2.43-.62,10.15,10.15,0,0,0,.41-1.43Z"/><path class="c" d="M237.14,1.2c.26,0,.51.06.78.06s.49,0,.78-.06V8.4a4,4,0,0,1,3.37-2c2.74,0,3.93,2.35,3.93,4.52,0,2.59-1.6,5.06-4.4,5.06a3.17,3.17,0,0,1-2.76-1.38c-.47.35-.88.78-1.33,1.16h-.37Zm1.52,10.59c0,2.11,1,3.57,2.73,3.57,2.2,0,2.9-2.56,2.9-4.37,0-2.1-.8-3.75-2.71-3.77C239.36,7.2,238.66,9.47,238.66,11.79Z"/><path class="c" d="M256,14.83A5.93,5.93,0,0,1,252.66,16c-2.69,0-4.59-1.77-4.59-4.79,0-2.71,1.55-4.79,4.46-4.79,2.16,0,4.14,1.52,4,4.77-1.33,0-2.65-.06-4-.06h-2.75c-.18,2.18,1,4.05,3.37,4.05A4.37,4.37,0,0,0,256,13.82Zm-1-4.44c0-1.69-.51-3.39-2.43-3.39s-2.63,1.75-2.75,3.39Z"/><path class="c" d="M259.38,6.51c.25,0,.51.06.78.06s.49,0,.78-.06v2l.1-.23a3.27,3.27,0,0,1,2.45-1.83,1.3,1.3,0,0,1,.6.1l-.27,1.63a3.44,3.44,0,0,0-.92-.31,1.74,1.74,0,0,0-1.24.49,3.16,3.16,0,0,0-.72,2.47v5c-.29,0-.53-.06-.78-.06s-.53,0-.78.06Z"/><path class="c" d="M273.07,14.19c0,.76-.06,1.15,1.09.89v.43a3,3,0,0,1-.58.2c-1,.17-1.85,0-2-1.13l-.18.17A3.82,3.82,0,0,1,268.51,16a2.44,2.44,0,0,1-2.59-2.38c0-2.22,1.77-2.51,3.61-2.8,1.53-.25,2.06-.37,2.06-1.31a2.07,2.07,0,0,0-2.28-2.27A2.43,2.43,0,0,0,267,8.56h-.21V7.47a5.55,5.55,0,0,1,3.14-1.07c2,0,3.15,1.07,3.15,3.27ZM271.51,11l-.68.14c-1.32.25-3.31.45-3.31,2.22a1.68,1.68,0,0,0,1.91,1.83,2.57,2.57,0,0,0,1.56-.74c.13-.14.52-.47.52-.6Z"/><path class="c" d="M278.42,4V6.51h2.07a1.58,1.58,0,0,0,0,.75h-2.07v4.88c0,1.19-.17,3.16,1.45,3.16a4.38,4.38,0,0,0,.87-.14v.47a4.81,4.81,0,0,1-1.63.35c-1.48,0-2.34-.68-2.24-3.06V7.26h-1.21a1.58,1.58,0,0,0,0-.75h1.21V4.59Z"/><path class="c" d="M290.79,15.82c-.29,0-.53-.06-.78-.06s-.52,0-.78.06V14.15A3.33,3.33,0,0,1,286.14,16c-2.15,0-3.22-1.11-3.22-3.74V6.51c.26,0,.51.06.78.06s.49,0,.78-.06v5.26c0,2.05.6,3.25,2.36,3.25,2,0,2.39-1.75,2.39-3.13V6.51c.26,0,.51.06.78.06s.49,0,.78-.06Z"/><path class="c" d="M294.61,6.51c.25,0,.5.06.78.06s.48,0,.77-.06V8.29A3.51,3.51,0,0,1,299.3,6.4c2.26,0,3.14,1.22,3.14,3.8v5.62c-.3,0-.53-.06-.78-.06s-.53,0-.78.06V10.64c0-1.81-.33-3.23-2.16-3.23-2.05,0-2.56,1.5-2.56,3.9v4.51c-.29,0-.52-.06-.77-.06s-.53,0-.78.06Z"/><path class="c" d="M313.67,7.2,311.53,7a3.2,3.2,0,0,1,1.34,2.57c0,2.12-1.89,3-4.15,3-.23,0-1.4-.19-1.4.93,0,.82.7.94,1.87.94h1.25c2.3,0,3.37.93,3.37,2.59,0,2.28-2,3.84-4.95,3.84-1.6,0-3.52-.82-3.52-2.87a2.21,2.21,0,0,1,2-2.35v-.16c-.56-.1-1.19-.39-1.19-1.58,0-.93.59-1.34,1.35-1.67a2.84,2.84,0,0,1-1.89-2.79c0-1.88,1.09-3.19,3.93-3.09l2.71.1a5.47,5.47,0,0,0,1.4,0ZM306.53,18c0,1.57,1.18,2.35,2.8,2.35,1.4,0,3.08-.66,3.08-2.49,0-2-1.41-2.16-2.87-2.16C307.52,15.65,306.53,16.39,306.53,18Zm2.7-5.85a2.28,2.28,0,0,0,2.16-2.55c0-1.5-.54-2.65-2.08-2.65s-2.2,1.08-2.2,2.55S307.81,12.12,309.23,12.12Z"/><path class="a" d="M125,28.69a9.48,9.48,0,0,0-7.15-3.08c-5.4,0-9.15,3.56-9.15,10s3.24,10.2,9.5,10.2a10.94,10.94,0,0,0,5-1.08V36.54c.44,0,.92.09,1.39.09s.89-.06,1.4-.09v9A26.57,26.57,0,0,1,117.32,47c-8,0-11.72-4.8-11.72-11.25,0-7.43,5.33-11.34,12.39-11.34,4.73,0,7.4,1.4,8.1,1.84-.29.8-.51,1.62-.73,2.45Z"/><path class="a" d="M134.48,24.88h6.73c4.89,0,7.06,1.62,7.06,4.83,0,3.68-3.31,5.46-6.52,6L148.3,44l1.52,1.78.61.8c-.67,0-1.24-.1-1.85-.1s-1.24.07-1.81.1c-.7-1-1.33-1.88-2-2.77L141,39l-2.54-3h-1.21V46.61c-.51,0-1-.1-1.4-.1s-1,.07-1.39.1Zm2.79,9.91a17.65,17.65,0,0,0,4.1-.16c2.32-.48,4.07-2.06,4.07-4.54a3.72,3.72,0,0,0-3.5-4,29,29,0,0,0-4.67,0Z"/><path class="a" d="M175.05,46.61c-.61,0-1.12-.1-1.65-.1s-1.15.07-1.69.1c-.92-2.64-2.06-5.69-3.33-8.58h-8.07c-1.12,2.8-2.26,5.59-3.15,8.58-.44,0-.79-.1-1.17-.1s-.77.07-1.12.1l9.92-22.21h.73Zm-10.68-18-3.46,8.14h7Z"/><path class="a" d="M182.07,24.88h7.21c3.31,0,6.51-.32,9.18,1.9a10.07,10.07,0,0,1,3.4,7.95,11.68,11.68,0,0,1-4,9.37c-2.7,2.35-6.23,2.41-9.6,2.41h-6.19Zm2.79,20.2c2.8.16,6.74.54,9.31-.76,3.43-1.71,4.58-5.24,4.58-9.12,0-6.73-2.77-9.18-9.88-9.18-1.3,0-2.64.1-4,.13Z"/><path class="a" d="M231,24.88c.82,7.84,1.71,15.66,2.57,21.73-.57,0-1-.1-1.49-.1s-1,.07-1.5.1c-.54-6.39-1.17-13.25-1.62-16.4-3.68,6.58-6.41,11.66-8.32,16h-.35l-1.75-3.59c-2-4.19-4.25-8.33-6.41-12.46-.7,6.2-1.56,12.49-1.56,16.4-.41,0-.76-.1-1.11-.1s-.77.07-1.15.1c.83-5.12,2.74-18.4,3-21.73h.83c2.54,5.05,5.59,11,9,16.64,3-5.43,5.94-11,9.15-16.64Z"/><path class="a" d="M259.21,46.61c-.61,0-1.12-.1-1.66-.1s-1.14.07-1.68.1C255,44,253.81,40.92,252.54,38h-8.07c-1.12,2.8-2.26,5.59-3.15,8.58-.44,0-.79-.1-1.17-.1s-.77.07-1.12.1L249,24.4h.73Zm-10.68-18-3.46,8.14h7Z"/><path class="a" d="M284.66,46.61h-1c-.35-.45-1-1.21-1.65-1.94L268.33,29.48H268V46.61c-.32,0-.61-.1-.89-.1a7.8,7.8,0,0,0-.89.1V24.88h1.24l15.09,16.36h.32V24.88a7.87,7.87,0,0,0,.89.09c.28,0,.57-.06.89-.09Z"/><path class="a" d="M312.71,46.61h-.95c-.35-.45-1-1.21-1.66-1.94L296.38,29.48h-.32V46.61c-.32,0-.6-.1-.89-.1a8.06,8.06,0,0,0-.89.1V24.88h1.24l15.09,16.36h.32V24.88a8.12,8.12,0,0,0,.89.09c.28,0,.57-.06.89-.09Z"/></svg>